<?xml version="1.0" encoding="UTF-8"?>
<svg width="85px" height="24px" viewBox="0 0 85 24" version="1.1" xmlns="http://www.w3.org/2000/svg" xmlns:xlink="http://www.w3.org/1999/xlink">
    <title>875CEAA9-D444-44D1-A0BC-69A0ED2B2B60</title>
    <g id="Home" stroke="none" stroke-width="1" fill="none" fill-rule="evenodd">
        <g id="point-home-mobile-2.0" transform="translate(-131.000000, -10.000000)" fill-rule="nonzero">
            <g id="Group-48" transform="translate(-20.000000, -12.000000)">
                <g id="top-bar" transform="translate(20.000000, 12.000000)">
                    <g id="Group-12" transform="translate(131.000000, 10.000000)">
                        <path d="M26.2351191,6.89486553 C28.9133302,6.89486553 31.1100652,7.71638142 32.7651395,9.38875306 C34.4503061,11.0317848 35.2928894,13.0562347 35.2928894,15.4621027 C35.2928894,17.8679707 34.4503061,19.8924205 32.7651395,21.5354523 C31.1100652,23.1784841 28.9133302,24 26.2351191,24 C23.5569079,24 21.3902652,23.1784841 19.7050987,21.5354523 C18.0500244,19.8924205 17.2074411,17.8679707 17.2074411,15.4621027 C17.2074411,13.0562347 18.0500244,11.0317848 19.7050987,9.38875306 C21.3902652,7.71638142 23.5569079,6.89486553 26.2351191,6.89486553 Z M67.861179,1.61369193 L67.861179,7.36430318 L73.0671399,7.36430318 L73.0671399,11.6479218 L67.861179,11.6479218 L67.861179,16.6650367 C67.861179,18.396088 68.5533009,19.2469438 69.9676372,19.2469438 C70.7500359,19.2469438 71.6227115,19.0122249 72.5856638,18.5134474 L72.5856638,18.5134474 L74,22.6503667 C72.4652947,23.5305623 70.6898514,23.9706601 68.7037622,23.9706601 C64.5811226,23.9706601 62.5348489,21.7408313 62.5348489,17.2811736 L62.5348489,17.2811736 L62.5348489,11.6479218 L62.5950334,7.36430318 L62.5950334,1.61369193 L67.861179,1.61369193 Z M8.84712445,1.87775061 C11.6757969,1.87775061 13.7822551,2.61124694 15.1364068,4.04889976 C16.5206508,5.48655257 17.2127727,7.27628362 17.2127727,9.41809291 C17.2127727,11.5599022 16.4905585,13.3202934 15.0762223,14.6992665 C13.7233789,16.0182843 11.6271601,16.6930454 8.8402364,16.7492269 L8.45592507,16.7530562 L5.62725263,16.7530562 L5.62725263,23.5599022 L0,23.5599022 L0,1.87775061 L8.84712445,1.87775061 Z M42.1185007,7.36430318 L42.1185007,23.5599022 L36.7921707,23.5599022 L36.7921707,7.36430318 L42.1185007,7.36430318 Z M54.5111802,6.92420538 C56.2866235,6.92420538 57.8213288,7.51100244 59.0551115,8.65525672 C60.2888941,9.799511 60.9208316,11.4718826 60.9208316,13.6136919 L60.9208316,13.6136919 L60.9208316,23.5599022 L55.5945016,23.5599022 L55.5945016,14.992665 C55.5945016,12.8801956 54.4810879,11.6479218 52.6755523,11.6479218 C50.7496477,11.6479218 49.4255882,13.0268949 49.4255882,15.1393643 L49.4255882,15.1393643 L49.4255882,23.5599022 L44.1293505,23.5599022 L44.1293505,7.36430318 L49.3052192,7.36430318 L49.3052192,9.62347188 C50.1177102,8.09779951 52.1037994,6.92420538 54.5111802,6.92420538 Z M26.2351191,11.7652812 C25.18189,11.7652812 24.3092144,12.1173594 23.5870002,12.8508557 C22.864786,13.5550122 22.5036788,14.405868 22.5036788,15.4327628 C22.5036788,16.4889976 22.864786,17.3691932 23.5870002,18.1026895 C24.3092144,18.806846 25.18189,19.1589242 26.2351191,19.1589242 C27.2883482,19.1589242 28.191116,18.806846 28.9133302,18.1026895 C29.6355445,17.3691932 29.9966516,16.4889976 29.9966516,15.4327628 C29.9966516,14.405868 29.6355445,13.5256724 28.883238,12.8215159 C28.1610237,12.1173594 27.2883482,11.7652812 26.2351191,11.7652812 Z M8.84712445,6.89486553 L5.62725263,6.89486553 L5.62725263,11.8239609 L8.72675541,11.8239609 C10.5021988,11.8239609 11.4350588,10.7383863 11.4350588,9.3594132 C11.4350588,7.95110024 10.411922,6.89486553 8.84712445,6.89486553 Z M39.4402896,1.31450406e-13 C41.1555484,1.31450406e-13 42.4796078,1.26161369 42.4796078,2.93398533 C42.4796078,4.66503667 41.1555484,5.92665037 39.4402896,5.92665037 C37.6648462,5.92665037 36.3708791,4.66503667 36.3708791,2.93398533 C36.3708791,1.26161369 37.7250308,1.31450406e-13 39.4402896,1.31450406e-13 Z" id="Combined-Shape" fill="#151E2E"></path>
                        <path d="M80.5221675,9 C83.0492611,9 85,7.08415842 85,4.45544554 C85,1.91584158 83.0492611,0 80.5221675,0 C77.9950739,0 76,1.91584158 76,4.45544554 C76,7.08415842 77.9064039,9 80.5221675,9 Z" id="Path" fill="#FF4700"></path>
                    </g>
                </g>
            </g>
        </g>
    </g>
</svg>